HIERARCHY
ROOT Hips
{
  OFFSET -33.9132 29.2015 117.021
  CHANNELS 6 Xposition Yposition Zposition Zrotation Xrotation Yrotation
  JOINT LeftUpLeg
  {
    OFFSET 8.64259 1.95398 -2.38835
    CHANNELS 3 Zrotation Xrotation Yrotation
    JOINT LeftLeg
    {
      OFFSET 43.7702 0 0
      CHANNELS 3 Zrotation Xrotation Yrotation
      JOINT LeftFoot
      {
        OFFSET 40.6238 0 0
        CHANNELS 3 Zrotation Xrotation Yrotation
        JOINT LeftToeBase
        {
          OFFSET 12.7242 0 0
          CHANNELS 3 Zrotation Xrotation Yrotation
          End Site
          {
            OFFSET 0 0 0
          }
        }
      }
    }
  }
  JOINT RightUpLeg
  {
    OFFSET -8.2249 1.95398 -2.59336
    CHANNELS 3 Zrotation Xrotation Yrotation
    JOINT RightLeg
    {
      OFFSET 43.5653 0 0
      CHANNELS 3 Zrotation Xrotation Yrotation
      JOINT RightFoot
      {
        OFFSET 40.6238 0 0
        CHANNELS 3 Zrotation Xrotation Yrotation
        JOINT RightToeBase
        {
          OFFSET 12.7242 0 0
          CHANNELS 3 Zrotation Xrotation Yrotation
          End Site
          {
            OFFSET 0 0 0
          }
        }
      }
    }
  }
  JOINT Spine
  {
    OFFSET 0.165834 0.87714 6.61349
    CHANNELS 3 Zrotation Xrotation Yrotation
    JOINT Spine1
    {
      OFFSET 7.38963 1.71661e-005 0
      CHANNELS 3 Zrotation Xrotation Yrotation
      JOINT Spine2
      {
        OFFSET 11.9445 1.14441e-005 0
        CHANNELS 3 Zrotation Xrotation Yrotation
        JOINT Spine3
        {
          OFFSET 14.7254 4.19617e-005 0
          CHANNELS 3 Zrotation Xrotation Yrotation
          JOINT Spine4
          {
            OFFSET 10.9679 0 0
            CHANNELS 3 Zrotation Xrotation Yrotation
            JOINT RightShoulder
            {
              OFFSET 2.46616 -1.6653 3.69651
              CHANNELS 3 Zrotation Xrotation Yrotation
              JOINT RightArm
              {
                OFFSET 13.0012 0 0
                CHANNELS 3 Zrotation Xrotation Yrotation
                JOINT RightForeArm
                {
                  OFFSET 28.7848 1.62311e-005 0
                  CHANNELS 3 Zrotation Xrotation Yrotation
                  JOINT RightHand
                  {
                    OFFSET 26.5688 1.62095e-005 0
                    CHANNELS 3 Zrotation Xrotation Yrotation
                    End Site
                    {
                      OFFSET 0 0 0
                    }
                  }
                }
              }
            }
            JOINT LeftShoulder
            {
              OFFSET 2.38034 -1.29275 -3.7523
              CHANNELS 3 Zrotation Xrotation Yrotation
              JOINT LeftArm
              {
                OFFSET 16.3182 6.07031e-005 0
                CHANNELS 3 Zrotation Xrotation Yrotation
                JOINT LeftForeArm
                {
                  OFFSET 27.0901 0 0
                  CHANNELS 3 Zrotation Xrotation Yrotation
                  JOINT LeftHand
                  {
                    OFFSET 24.5451 1.51738e-005 0
                    CHANNELS 3 Zrotation Xrotation Yrotation
                    End Site
                    {
                      OFFSET 0 0 0
                    }
                  }
                }
              }
            }
            JOINT Neck
            {
              OFFSET 5.0226 -0.0266342 0
              CHANNELS 3 Zrotation Xrotation Yrotation
              JOINT Head
              {
                OFFSET 6.69364 2.86102e-005 0
                CHANNELS 3 Zrotation Xrotation Yrotation
                End Site
                {
                  OFFSET 0 0 0
                }
              }
            }
          }
        }
      }
    }
  }
}
MOTION
Frames:	6
Frame Time:	0.0416667
-88.3872 87.7688 -80.8983 -113.892 42.6412 -77.1588 -172.325 24.8115 85.4979 -61.2424 16.3916 -0.820612 72.07 9.76295 7.26046 23.4072 -1.1014 -2.90414 173.172 30.2137 87.5088 -96.5088 -7.53704 -3.60662 68.1452 -7.38127 -6.89919 16.7061 1.89258 10.2813 0.0661966 9.83255 -89.4875 7.20618 0.353073 0.994467 -4.46509 0.396511 0.977957 -26.9972 0.0378956 1.0546 -6.98456 0.0378849 1.05459 95.7956 -15.6436 -98.9913 51.8127 -2.29515 27.9245 -34.4184 -25.7013 -56.9233 -24.819 3.64641 -22.1069 -86.915 -31.912 79.7177 -4.63643 1.33496 -13.0233 39.6243 40.4704 -53.0327 46.4536 -19.6591 -40.615 1.46784 1.9335 -3.24922 -2.82087 2.40304 0.740918 
-91.8415 87.9382 -84.5897 -111.557 43.5733 -77.7155 -170.133 25.9903 87.1851 -65.5451 18.8875 -1.35599 71.3328 9.53343 9.18826 28.0836 0.787727 -2.75642 172.104 39.2646 90.4611 -89.5536 -4.32797 -2.39509 66.3552 -5.98433 -6.96382 16.3757 1.64679 11.3057 -0.172691 9.97662 -89.6241 6.9205 -0.183906 0.748779 -4.75066 -0.150753 0.756133 -27.2845 -0.400433 0.658903 -7.27184 -0.400413 0.65889 95.9177 -12.2995 -99.9023 48.6849 -0.930886 37.256 -37.1222 -20.0187 -65.6092 -28.7162 4.22695 -21.934 -85.828 -25.472 80.1924 -2.85928 -4.69291 -21.7734 40.5547 39.667 -54.6421 45.9117 -19.1017 -40.0347 -0.389129 3.2994 -1.09498 0.105162 3.44558 1.46713 
-94.9212 88.4304 -87.8026 -109.433 41.5205 -78.8654 -168.136 29.9649 88.4416 -70.6662 21.6176 -1.62783 60.9274 1.08258 8.93591 35.5729 6.49878 -10.3635 168.022 43.766 91.243 -76.9691 3.47767 0.425738 63.9644 -3.80309 -6.31088 14.3452 2.86089 10.0555 -0.627778 10.2807 -89.7308 6.31487 -1.14011 0.567676 -5.35576 -1.11402 0.617298 -27.8945 -1.25801 0.198744 -7.8818 -1.25801 0.198735 95.054 -10.8312 -103.02 43.4526 2.01444 46.7689 -33.8302 -12.0684 -73.3259 -33.6284 4.75079 -21.0629 -84.7255 -18.9474 80.7847 -0.844104 -10.3622 -28.9048 39.5867 40.9071 -53.6957 48.281 -19.3342 -38.3907 -2.38492 4.38904 0.06164 3.91694 4.44638 1.94037 
-98.2305 88.5073 -91.2709 -108.467 37.7803 -79.7271 -165.818 34.6383 89.4926 -77.1883 24.4336 -1.77266 51.7311 -6.13869 6.70041 14.7052 0.50307 -13.0978 165.057 43.7785 88.9582 -62.721 6.83232 4.37208 60.9524 -0.786298 -3.87047 13.9282 3.67654 8.38576 -1.06377 10.8122 -89.9122 5.25118 -2.08905 0.213063 -6.41812 -2.07764 0.30482 -28.9664 -2.05646 -0.424908 -8.95378 -2.05646 -0.424922 94.7238 -9.18913 -104.811 40.2865 2.20357 51.792 -28.9091 -5.64409 -81.4907 -42.8264 4.28527 -16.2765 -83.6506 -11.9961 81.2254 -5.22626 -16.2111 -37.655 33.5734 44.5294 -46.8329 47.8985 -19.5449 -39.2068 -0.959373 4.63452 -0.610126 3.66868 4.89681 4.33935 
-101.765 87.8959 -95.2243 -106.488 35.5547 -80.9158 -160.739 39.8156 89.5054 -82.4805 16.2001 -2.32742 52.3285 -5.81073 7.44429 17.3403 0.722134 -11.4399 164.061 42.485 86.582 -48.2448 1.85784 7.59194 58.2251 1.40541 -1.22717 15.4411 2.23763 10.6234 -1.1963 11.0987 -90.1453 4.67287 -2.44973 -0.254316 -6.99578 -2.45852 -0.146195 -29.5471 -2.25998 -0.979172 -9.53447 -2.25998 -0.97917 95.4356 -7.3859 -103.639 39.2106 0.171566 45.058 -28.4392 -4.1726 -84.276 -56.3409 3.84886 -12.4158 -83.8974 -9.15282 79.5767 -11.6421 -19.7598 -47.2294 28.4062 51.8888 -38.4731 48.0348 -17.5453 -35.1108 -1.88222 4.56429 -0.410163 4.93321 4.90372 5.14966 
-105.163 86.7052 -99.5705 -105.039 34.7129 -82.0984 -153.884 44.7162 88.508 -84.6073 12.2675 -3.73588 59.284 -0.625625 7.93776 16.1834 -0.775783 -9.4049 164.703 40.9842 84.9619 -38.9248 1.18771 8.21243 58.4834 0.916032 -1.3738 16.1557 2.10131 10.2692 -1.21406 11.2774 -90.1936 4.31393 -2.50437 -0.359971 -7.35463 -2.51779 -0.249338 -29.9061 -2.28034 -1.09636 -9.89347 -2.28035 -1.09637 96.4382 -8.14164 -100.156 38.122 -4.61412 30.5817 -27.3477 -3.18467 -86.0089 -60.5367 2.09433 -8.7505 -84.6112 -10.5133 78.1526 -19.351 -20.1746 -57.4783 27.7465 60.9688 -34.0183 45.9256 -13.7905 -28.8174 -1.33649 4.39981 -0.238785 3.35134 4.60645 4.33343 
